<?xml version="1.0" encoding="UTF-8" standalone="no"?>
<!-- Created with Inkscape (http://www.inkscape.org/) -->

<svg
   xmlns:dc="http://purl.org/dc/elements/1.1/"
   xmlns:cc="http://creativecommons.org/ns#"
   xmlns:rdf="http://www.w3.org/1999/02/22-rdf-syntax-ns#"
   xmlns:svg="http://www.w3.org/2000/svg"
   xmlns="http://www.w3.org/2000/svg"
   xmlns:sodipodi="http://sodipodi.sourceforge.net/DTD/sodipodi-0.dtd"
   xmlns:inkscape="http://www.inkscape.org/namespaces/inkscape"
   id="svg3336"
   version="1.1"
   inkscape:version="0.91 r13725"
   width="283.5"
   height="127.5"
   viewBox="0 0 283.5 127.5"
   sodipodi:docname="coding.svg"
   inkscape:export-filename="C:\Users\ASU\Desktop\coding.png"
   inkscape:export-xdpi="90"
   inkscape:export-ydpi="90">
  <metadata
     id="metadata3342">
    <rdf:RDF>
      <cc:Work
         rdf:about="">
        <dc:format>image/svg+xml</dc:format>
        <dc:type
           rdf:resource="http://purl.org/dc/dcmitype/StillImage" />
        <dc:title></dc:title>
      </cc:Work>
    </rdf:RDF>
  </metadata>
  <defs
     id="defs3340">
    <filter
       inkscape:label="Light Eraser"
       style="color-interpolation-filters:sRGB;"
       id="filter3540">
      <feColorMatrix
         values="1 0 0 0 0 0 1 0 0 0 0 0 1 0 0 -20.1145 -67.7171 -6.82472 62.5 0 "
         result="colormatrix"
         id="feColorMatrix3542" />
      <feComposite
         in2="colormatrix"
         operator="arithmetic"
         k2="1"
         result="fbSourceGraphic"
         id="feComposite3544" />
      <feColorMatrix
         result="fbSourceGraphicAlpha"
         in="fbSourceGraphic"
         values="0 0 0 -1 0 0 0 0 -1 0 0 0 0 -1 0 0 0 0 1 0"
         id="feColorMatrix3546" />
      <feColorMatrix
         id="feColorMatrix3548"
         values="1 0 0 0 0 0 1 0 0 0 0 0 1 0 0 -20.1237 -67.7484 -6.82787 62.5 0 "
         result="colormatrix"
         in="fbSourceGraphic" />
      <feComposite
         id="feComposite3550"
         in2="colormatrix"
         operator="arithmetic"
         k2="1"
         result="fbSourceGraphic" />
      <feColorMatrix
         result="fbSourceGraphicAlpha"
         in="fbSourceGraphic"
         values="0 0 0 -1 0 0 0 0 -1 0 0 0 0 -1 0 0 0 0 1 0"
         id="feColorMatrix3552" />
      <feColorMatrix
         id="feColorMatrix3554"
         values="1 0 0 0 0 0 1 0 0 0 0 0 1 0 0 -20.1237 -67.7484 -6.82787 62.5 0 "
         result="colormatrix"
         in="fbSourceGraphic" />
      <feComposite
         id="feComposite3556"
         in2="colormatrix"
         operator="arithmetic"
         k2="1"
         result="composite" />
    </filter>
  </defs>
  <sodipodi:namedview
     pagecolor="#dcdcdc"
     bordercolor="#666666"
     borderopacity="1"
     objecttolerance="10"
     gridtolerance="10"
     guidetolerance="10"
     inkscape:pageopacity="0"
     inkscape:pageshadow="2"
     inkscape:window-width="1842"
     inkscape:window-height="1051"
     id="namedview3338"
     showgrid="false"
     inkscape:zoom="4.1952508"
     inkscape:cx="148.07405"
     inkscape:cy="57.420517"
     inkscape:window-x="-9"
     inkscape:window-y="-9"
     inkscape:window-maximized="1"
     inkscape:current-layer="svg3336"
     inkscape:showpageshadow="false" />
  <path
     style="fill:#505050;fill-opacity:1"
     d="m 161.21211,123.97316 c -5.43687,-3.35833 -5.22809,-2.31026 -5.45223,-27.369684 -0.19257,-21.530686 -0.13025,-22.726566 1.30564,-25.054256 0.82934,-1.34439 2.60784,-3.115 3.95223,-3.93469 2.28794,-1.39497 3.81222,-1.49045 23.81936,-1.49198 23.90977,-0.002 24.97348,0.19397 28.32801,5.21464 1.72827,2.58667 1.73233,2.65427 1.51495,25.253176 -0.29659,30.834044 1.81814,28.779494 -29.61822,28.775414 -19.71654,-0.002 -21.79591,-0.12398 -23.84974,-1.39262 z m 15.99484,-25.980354 c -0.13466,-8.04417 -0.0368,-14.625416 0.21766,-14.624996 0.25439,4.2e-4 1.1294,1.60389 1.9445,3.56327 0.81509,1.959366 3.81321,8.539506 6.66249,14.62253 5.18051,11.06003 5.18051,11.06003 8.74301,11.0625 3.5625,0.002 3.5625,0.002 3.5625,-17.247534 0,-17.249996 0,-17.249996 -2.68574,-17.249996 -2.68574,0 -2.68574,0 -2.4375,13.500756 0.13653,7.42541 0.0629,13.500414 -0.16359,13.500004 -0.22651,-4.2e-4 -0.85865,-1.26638 -1.40477,-2.81326 -0.5461,-1.54687 -3.19419,-7.621884 -5.88462,-13.500004 C 180.8692,78.11858 180.8692,78.11858 176.47816,78.11858 c -4.39105,0 -4.39105,0 -4.39105,17.249996 0,17.250004 0,17.250004 2.68234,17.250004 2.68235,0 2.68235,0 2.4375,-14.625774 z m 50.75516,25.980354 c -5.43687,-3.35833 -5.22809,-2.31026 -5.45223,-27.369684 -0.19257,-21.530686 -0.13025,-22.726566 1.30564,-25.054256 0.82934,-1.34439 2.60784,-3.115 3.95223,-3.93469 2.28794,-1.39497 3.81222,-1.49045 23.81936,-1.49198 23.90977,-0.002 24.97348,0.19397 28.32801,5.21464 1.72827,2.58667 1.73233,2.65427 1.51495,25.253176 -0.29659,30.834044 1.81814,28.779494 -29.61822,28.775414 -19.71654,-0.002 -21.79591,-0.12398 -23.84974,-1.39262 z m 30.03346,-13.63702 c 2.57366,-2.49448 2.57366,-2.49448 3.05135,-0.10602 0.37601,1.88008 0.85683,2.38846 2.25894,2.38846 1.77604,0 1.78125,-0.0263 1.78125,-9 0,-9.000004 0,-9.000004 -6.75,-9.000004 -6.75,0 -6.75,0 -6.75,2.25 0,2.23116 0.035,2.25 4.18459,2.25 4.18459,0 4.18459,0 3.69236,2.437504 -1.19182,5.90184 -6.01874,8.62055 -11.05893,6.22883 -3.82644,-1.81577 -5.37599,-5.39712 -5.37217,-12.416334 0.004,-8.734866 3.03948,-13.124996 9.07283,-13.124996 2.75287,0 3.68879,0.38085 5.17125,2.10432 0.99554,1.15738 1.81007,2.59819 1.81007,3.20179 0,0.816146 0.5287,0.971726 2.0625,0.60697 3.84147,-0.91357 3.99115,-1.21286 2.21245,-4.42361 -3.96384,-7.15514 -14.97406,-8.38538 -21.4002,-2.39117 -6.03809,5.63223 -6.98637,18.600615 -1.92117,26.27308 4.06861,6.16288 13.00638,7.51746 17.95488,2.72118 z M 94.462098,123.22316 c -5.43687,-3.35833 -5.228093,-2.31026 -5.45223,-27.369684 -0.19257,-21.530686 -0.130252,-22.726566 1.305645,-25.054256 0.829335,-1.34439 2.607832,-3.115 3.95223,-3.93469 2.287935,-1.39497 3.812213,-1.49045 23.819367,-1.49198 23.90977,-0.002 24.97348,0.19397 28.32801,5.21464 1.72827,2.58667 1.73233,2.65427 1.51495,25.253176 -0.29659,30.834044 1.81814,28.779494 -29.61822,28.775414 -19.716547,-0.002 -21.795922,-0.12398 -23.849752,-1.39262 z M 121.08711,95.368576 c 0,-17.249996 0,-17.249996 -2.625,-17.249996 -2.625,0 -2.625,0 -2.625,17.249996 0,17.250004 0,17.250004 2.625,17.250004 2.625,0 2.625,0 2.625,-17.250004 z M 74.212098,60.22316 C 68.775226,56.86483 68.984007,57.91289 68.759871,32.853486 68.567297,11.322788 68.629618,10.126907 70.065516,7.7992252 c 0.82933,-1.344396 2.607832,-3.115009 3.952227,-3.934697 2.287935,-1.394969 3.812212,-1.490446 23.819355,-1.491979 23.909782,-0.0018 24.973492,0.193976 28.328022,5.214644 1.72827,2.5866698 1.73233,2.6542708 1.51495,25.2531778 C 127.38348,63.67441 129.49821,61.61986 98.061843,61.61578 78.345303,61.61278 76.265928,61.4918 74.212098,60.22316 Z M 103.20077,49.59953 c 3.3034,-0.91754 7.56267,-5.40445 8.96622,-9.445419 0.556,-1.600792 1.00545,-5.292793 0.99878,-8.204446 -0.0229,-9.98341 -5.02338,-16.637591 -13.08496,-17.412207 C 91.262103,13.690093 85.070478,19.490142 83.867531,29.725366 82.241313,43.5619 91.323746,52.89846 103.20077,49.59953 Z M 94.748208,44.74126 C 91.635213,43.04954 90.02989,38.83995 90.02989,32.36858 c 0,-6.582644 1.62867,-10.731314 4.8711,-12.408038 6.8842,-3.559957 12.13349,1.808108 12.13349,12.408038 0,10.62185 -5.43556,16.09564 -12.286272,12.37268 z m 46.213902,15.4819 c -5.43687,-3.35833 -5.22809,-2.31027 -5.45223,-27.369674 -0.19257,-21.530698 -0.13025,-22.726579 1.30564,-25.0542608 0.82934,-1.344396 2.60784,-3.115009 3.95223,-3.934697 2.28794,-1.394969 3.81222,-1.490446 23.81936,-1.491979 23.90977,-0.0018 24.97348,0.193976 28.32801,5.214644 1.72827,2.5866698 1.73233,2.6542708 1.51495,25.2531778 -0.29659,30.834039 1.81814,28.779489 -29.61822,28.775409 -19.71654,-0.003 -21.79591,-0.12398 -23.84974,-1.39262 z m 29.24752,-11.4451 c 3.91321,-1.08637 8.95059,-6.12376 10.03695,-10.036955 2.02476,-7.293414 0.58131,-15.058219 -3.57123,-19.21076 -3.47092,-3.470919 -6.85752,-4.402338 -16.02574,-4.407582 -7.3125,-0.0042 -7.3125,-0.0042 -7.3125,17.245817 0,17.25 0,17.25 6.9375,17.24582 3.81562,-0.002 8.28639,-0.37866 9.93502,-0.83634 z M 158.58711,32.36858 c 0,-12.75 0,-12.75 3.73482,-12.75 9.08865,0 13.31433,4.717168 12.5669,14.028551 -0.62658,7.805889 -4.57407,11.467979 -12.36422,11.470279 -3.9375,10e-4 -3.9375,10e-4 -3.9375,-12.74883 z M 7.4620986,59.47316 C 2.0252266,56.11483 2.2340076,57.16289 2.0098716,32.103486 1.8172976,10.572788 1.8796186,9.3769072 3.3155166,7.0492252 c 0.82933,-1.344396 2.607832,-3.115009 3.952227,-3.934697 2.2879328,-1.394969 3.8122124,-1.490446 23.8193544,-1.491979 23.909765,-0.0018 24.973475,0.193976 28.328011,5.214644 1.728271,2.58667 1.732327,2.654271 1.51495,25.2531778 C 60.633469,62.92441 62.748195,60.86986 31.311843,60.86578 11.5953,60.86278 9.5159296,60.7418 7.4620986,59.47316 Z M 39.362593,47.93108 c 2.202918,-1.11189 3.915783,-2.7108 5.02158,-4.6875 0.923037,-1.65 1.683801,-3.196498 1.690587,-3.436664 0.0068,-0.240165 -1.176597,-0.801559 -2.629739,-1.247541 -2.552345,-0.783337 -2.675759,-0.730299 -3.633822,1.561665 -1.417743,3.39165 -3.251248,4.62254 -6.885631,4.62254 -5.839168,0 -8.88699,-4.497517 -8.894388,-13.125 -0.005,-5.731972 0.704599,-7.95975 3.519588,-11.051018 3.420293,-3.755976 9.919228,-2.543617 11.810131,2.203149 0.541796,1.360078 1.030186,2.548096 1.085312,2.64004 0.05512,0.09194 1.325818,-0.171229 2.823759,-0.58483 2.567103,-0.708812 2.682158,-0.870681 2.003218,-2.818288 -2.952844,-8.470535 -15.208642,-11.181619 -21.88582,-4.841325 -4.055065,3.850477 -5.367446,7.384163 -5.367446,14.452272 0,7.033495 1.435216,10.93264 5.379218,14.61406 3.920239,3.65924 10.658299,4.37614 15.963453,1.69844 z"
     id="path3560"
     inkscape:connector-curvature="0" />
</svg>
